<?xml version="1.0" standalone="no"?>
<!DOCTYPE svg PUBLIC "-//W3C//DTD SVG 20010904//EN"
 "http://www.w3.org/TR/2001/REC-SVG-20010904/DTD/svg10.dtd">
<svg version="1.0" xmlns="http://www.w3.org/2000/svg"
 width="1225.000000pt" height="1225.000000pt" viewBox="0 0 1225.000000 1225.000000"
 preserveAspectRatio="xMidYMid meet">
<metadata>
Created by potrace 1.11, written by Peter Selinger 2001-2013
</metadata>
<g transform="translate(0.000000,1225.000000) scale(0.100000,-0.100000)"
fill="#000000" stroke="none">
<path d="M12065 12153 c-415 -654 -1146 -1220 -1928 -1493 -166 -57 -420 -124
-587 -155 -105 -19 -324 -55 -365 -60 -27 -4 -61 -8 -75 -11 -58 -9 -215 -30
-295 -39 -27 -3 -81 -10 -120 -15 -73 -10 -130 -16 -230 -25 -33 -4 -67 -8
-75 -10 -8 -2 -49 -7 -90 -10 -41 -3 -82 -8 -90 -10 -8 -2 -49 -7 -90 -10 -41
-4 -82 -8 -90 -10 -8 -2 -49 -6 -90 -10 -41 -3 -86 -8 -100 -10 -44 -7 -104
-14 -155 -20 -95 -10 -273 -32 -325 -40 -14 -2 -52 -6 -85 -10 -33 -3 -87 -10
-120 -15 -99 -15 -128 -20 -165 -24 -59 -8 -238 -35 -370 -57 -69 -11 -138
-22 -155 -25 -16 -2 -41 -7 -55 -9 -14 -3 -36 -8 -50 -10 -14 -3 -41 -8 -60
-11 -19 -3 -78 -14 -130 -24 -52 -11 -111 -22 -130 -25 -39 -7 -193 -40 -255
-55 -72 -17 -220 -52 -235 -55 -365 -79 -953 -264 -1400 -440 -143 -57 -174
-70 -298 -126 -34 -16 -64 -29 -66 -29 -24 0 -540 -260 -679 -342 -26 -15 -50
-28 -52 -28 -13 0 -449 -273 -500 -312 -5 -5 -55 -40 -110 -80 -148 -106 -350
-269 -480 -388 -63 -57 -318 -312 -369 -369 -153 -170 -354 -427 -477 -612
-74 -110 -68 -100 -154 -242 -148 -242 -280 -510 -400 -807 -220 -548 -362
-1143 -420 -1765 -33 -351 -25 -959 15 -1180 5 -27 12 -67 14 -87 11 -77 42
-196 66 -253 4 -11 14 -36 21 -55 86 -238 302 -504 534 -659 96 -65 110 -71
116 -55 4 11 23 107 44 214 137 717 374 1478 603 1937 119 238 305 557 430
738 88 127 128 182 149 210 13 17 27 35 31 40 87 118 95 129 208 265 154 185
233 271 439 475 246 244 371 357 529 480 21 17 44 35 50 40 125 113 737 527
911 617 17 8 91 49 165 90 114 63 331 172 495 249 185 86 670 279 871 347 163
54 310 102 334 107 8 2 94 26 190 54 96 27 258 70 360 96 588 146 804 208
1155 333 130 46 258 95 330 127 17 7 131 54 255 105 124 51 257 108 297 126
40 18 98 44 130 58 54 23 119 53 378 174 118 56 578 287 720 361 55 30 96 49
90 44 -55 -53 -771 -531 -1060 -707 -88 -54 -177 -109 -197 -122 -21 -13 -40
-24 -44 -24 -3 0 -29 -15 -57 -33 -56 -36 -157 -95 -252 -147 -33 -18 -94 -52
-135 -76 -41 -23 -100 -56 -130 -73 -194 -110 -657 -325 -905 -421 -60 -23
-123 -48 -140 -56 -16 -7 -50 -20 -75 -28 -266 -90 -1211 -455 -1550 -598
-596 -252 -1169 -600 -1667 -1015 -304 -252 -546 -486 -935 -903 -419 -450
-732 -1012 -964 -1735 -66 -203 -153 -518 -179 -645 -2 -8 -15 -67 -29 -130
-14 -63 -27 -127 -30 -143 -3 -15 -7 -35 -10 -45 -3 -9 -7 -35 -11 -57 -3 -22
-7 -47 -10 -55 -2 -8 -6 -33 -10 -55 -3 -22 -12 -80 -21 -130 -9 -49 -17 -101
-19 -115 -4 -28 -14 -102 -20 -140 -2 -14 -6 -44 -9 -67 -3 -24 -8 -60 -11
-80 -5 -40 -11 -95 -20 -178 -3 -27 -8 -66 -10 -85 -8 -68 -14 -136 -20 -210
-3 -41 -7 -91 -10 -110 -2 -19 -7 -78 -10 -130 -3 -52 -8 -131 -11 -176 l-4
-80 51 -68 c232 -307 634 -530 1119 -621 14 -3 36 -7 50 -10 48 -10 74 -15
119 -20 25 -3 55 -7 67 -9 24 -5 170 -19 199 -19 26 0 133 12 210 23 33 5 80
12 105 15 44 5 250 40 300 50 14 3 39 8 55 11 128 22 406 87 600 139 223 60
593 187 840 288 119 49 187 78 203 87 9 4 44 20 77 35 169 76 454 224 635 330
63 37 124 73 135 79 120 69 626 412 645 436 3 3 32 26 64 50 33 24 67 49 75
56 9 7 48 38 86 69 136 110 161 131 285 239 263 230 619 584 835 831 33 37 65
73 70 79 10 10 178 208 213 251 125 151 336 428 477 627 52 73 98 138 102 143
76 96 486 752 609 972 209 375 233 421 399 753 112 223 144 290 222 460 14 30
41 88 59 128 19 41 34 75 34 77 0 2 15 36 34 77 243 530 585 1448 810 2178
100 327 272 930 292 1029 3 14 14 57 25 97 11 40 22 81 24 91 1 10 11 47 20
83 9 36 19 76 22 90 2 14 13 59 23 100 19 77 88 376 96 420 3 13 12 56 20 95
9 38 17 78 19 88 2 10 6 26 9 35 3 9 8 31 11 48 2 17 22 121 44 230 21 109 42
215 45 234 3 19 12 69 20 110 8 42 18 98 22 125 3 28 8 52 9 55 2 3 6 26 10
50 3 25 10 70 15 100 5 30 12 72 16 94 3 21 7 47 9 58 2 11 13 85 25 166 39
278 42 302 38 302 -3 0 -26 -35 -53 -77z"/>
</g>
</svg>
